<svg width="36" height="39" viewBox="0 0 36 39" fill="none" xmlns="http://www.w3.org/2000/svg">
<path d="M14.0969 16.3605C13.6429 16.3237 13.188 16.4192 12.7915 16.6348C12.395 16.8503 12.0756 17.1757 11.875 17.5683C11.6743 17.961 11.6019 18.4027 11.6671 18.8356C11.7323 19.2685 11.9321 19.6724 12.2404 19.9944C12.5486 20.3165 12.951 20.5417 13.3948 20.6406C13.8386 20.7394 14.3032 20.7074 14.7277 20.5486C15.1522 20.3898 15.5169 20.1117 15.774 19.7506C16.0312 19.3896 16.1688 18.9624 16.1688 18.525C16.181 18.2523 16.137 17.9799 16.0394 17.7234C15.9419 17.467 15.7926 17.2315 15.6002 17.0305C15.4078 16.8295 15.176 16.6668 14.918 16.5519C14.6601 16.4369 14.3811 16.3719 14.0969 16.3605ZM21.511 16.3605C21.057 16.3237 20.602 16.4192 20.2056 16.6348C19.8091 16.8503 19.4897 17.1757 19.289 17.5683C19.0884 17.961 19.016 18.4027 19.0811 18.8356C19.1463 19.2685 19.3462 19.6724 19.6544 19.9944C19.9627 20.3165 20.3651 20.5417 20.8089 20.6406C21.2527 20.7394 21.7172 20.7074 22.1418 20.5486C22.5663 20.3898 22.931 20.1117 23.1881 19.7506C23.4452 19.3896 23.5828 18.9624 23.5829 18.525C23.595 18.2523 23.5511 17.9799 23.4535 17.7234C23.3559 17.467 23.2067 17.2315 23.0142 17.0305C22.8218 16.8295 22.59 16.6668 22.3321 16.5519C22.0741 16.4369 21.7951 16.3719 21.511 16.3605Z" fill="white"/>
<path d="M31.3828 0H4.16408C3.61588 0.00118037 3.0733 0.106031 2.56732 0.308561C2.06135 0.511092 1.60189 0.807335 1.2152 1.18037C0.828511 1.5534 0.522163 1.99591 0.313659 2.48263C0.105154 2.96935 -0.0014237 3.49073 1.4361e-05 4.017V30.381C-0.0014237 30.9073 0.105154 31.4287 0.313659 31.9154C0.522163 32.4021 0.828511 32.8446 1.2152 33.2176C1.60189 33.5907 2.06135 33.8869 2.56732 34.0894C3.0733 34.292 3.61588 34.3968 4.16408 34.398H27.1985L26.1219 30.7905L28.7219 33.111L31.1797 35.295L35.5469 39V4.017C35.5483 3.49073 35.4418 2.96935 35.2332 2.48263C35.0247 1.99591 34.7184 1.5534 34.3317 1.18037C33.945 0.807335 33.4856 0.511092 32.9796 0.308561C32.4736 0.106031 31.931 0.00118037 31.3828 0ZM23.5422 25.467C23.5422 25.467 22.811 24.6285 22.2016 23.8875C23.6739 23.5547 24.9762 22.7327 25.8781 21.567C25.1473 22.0339 24.3636 22.4199 23.5422 22.7175C22.5973 23.1047 21.609 23.3861 20.5969 23.556C18.8572 23.8635 17.0731 23.8569 15.336 23.5365C14.3161 23.3449 13.3166 23.0643 12.35 22.698C11.8405 22.5099 11.3451 22.2884 10.8672 22.035C10.8063 21.996 10.7453 21.9765 10.6844 21.9375C10.6538 21.9229 10.6263 21.9031 10.6031 21.879C10.4083 21.7771 10.2185 21.6664 10.0344 21.5475C10.9037 22.6888 12.161 23.5027 13.5891 23.8485C12.9797 24.5895 12.2281 25.467 12.2281 25.467C11.0215 25.4982 9.82543 25.2442 8.7451 24.7274C7.66478 24.2105 6.73336 23.4466 6.03283 22.503C6.09877 18.5498 7.09892 14.6626 8.95783 11.1345C10.5937 9.90106 12.5881 9.18562 14.6656 9.087L14.8688 9.321C12.9142 9.78536 11.0902 10.6575 9.52658 11.8755C9.52658 11.8755 9.97345 11.6415 10.725 11.31C12.1851 10.6702 13.7412 10.2556 15.336 10.0815C15.4497 10.0589 15.5652 10.0459 15.6813 10.0425C17.0424 9.87225 18.42 9.85916 19.7844 10.0035C21.9301 10.2387 24.0071 10.8747 25.8985 11.8755C24.4141 10.7156 22.6902 9.87149 20.8406 9.399L21.125 9.087C23.2026 9.18562 25.197 9.90106 26.8328 11.1345C28.6917 14.6626 29.6919 18.5498 29.7578 22.503C29.0516 23.4457 28.1162 24.2085 27.033 24.7251C25.9497 25.2416 24.7514 25.4963 23.5422 25.467Z" fill="white"/>
</svg>
