<svg width="16" height="16" viewBox="0 0 16 16" fill="none" xmlns="http://www.w3.org/2000/svg">
<g clip-path="url(#clip0_0_170)">
<path d="M15.3604 7.82805C15.3604 7.19841 15.3082 6.73894 15.195 6.26245H7.83734V9.10434H12.1561C12.0691 9.81059 11.5989 10.8742 10.554 11.5889L10.5393 11.684L12.8657 13.4451L13.0269 13.4609C14.5071 12.125 15.3604 10.1594 15.3604 7.82805Z" fill="#4285F4"/>
<path d="M7.83735 15.3158C9.95319 15.3158 11.7295 14.635 13.0269 13.4609L10.554 11.5889C9.89226 12.0399 9.0041 12.3547 7.83735 12.3547C5.76503 12.3547 4.00617 11.0188 3.37918 9.17245L3.28728 9.18007L0.868304 11.0095L0.83667 11.0954C2.12533 13.597 4.77236 15.3158 7.83735 15.3158Z" fill="#34A853"/>
<path d="M3.37913 9.17245C3.21369 8.69596 3.11795 8.1854 3.11795 7.65788C3.11795 7.13031 3.21369 6.6198 3.37042 6.14331L3.36604 6.04184L0.916748 4.18306L0.836612 4.22031C0.305491 5.25839 0.000732422 6.42411 0.000732422 7.65788C0.000732422 8.89165 0.305491 10.0573 0.836612 11.0954L3.37913 9.17245Z" fill="#FBBC05"/>
<path d="M7.83735 2.96103C9.30886 2.96103 10.3015 3.58216 10.8675 4.10123L13.0791 1.99105C11.7208 0.757283 9.95319 0 7.83735 0C4.77236 0 2.12533 1.71876 0.83667 4.22031L3.37048 6.14332C4.00617 4.29692 5.76503 2.96103 7.83735 2.96103Z" fill="#EB4335"/>
</g>
<defs>
<clipPath id="clip0_0_170">
<rect width="15.3686" height="15.3686" fill="white"/>
</clipPath>
</defs>
</svg>
