<?xml version="1.0" encoding="UTF-8"?>
<!DOCTYPE svg PUBLIC "-//W3C//DTD SVG 1.1//EN" "http://www.w3.org/Graphics/SVG/1.1/DTD/svg11.dtd">
<svg xmlns="http://www.w3.org/2000/svg" version="1.1" width="17px" height="17px" style="shape-rendering:geometricPrecision; text-rendering:geometricPrecision; image-rendering:optimizeQuality; fill-rule:evenodd; clip-rule:evenodd" xmlns:xlink="http://www.w3.org/1999/xlink">
<g><path style="opacity:0.657" fill="#3cc951" d="M 5.5,0.5 C 9.15466,-0.0750346 12.1547,0.924965 14.5,3.5C 13.8333,3.5 13.1667,3.5 12.5,3.5C 11.8333,3.16667 11.1667,2.83333 10.5,2.5C 8.83333,1.83333 7.16667,1.16667 5.5,0.5 Z"/></g>
<g><path style="opacity:0.749" fill="#3bc751" d="M 5.5,0.5 C 7.16667,1.16667 8.83333,1.83333 10.5,2.5C 8.4727,2.33788 6.4727,2.50454 4.5,3C 6.11934,3.23555 7.11934,4.06888 7.5,5.5C 6.16667,5.5 4.83333,5.5 3.5,5.5C 2.79405,4.44272 2.46072,4.77606 2.5,6.5C 1.83333,6.16667 1.16667,5.83333 0.5,5.5C 0.833333,4.83333 1.16667,4.16667 1.5,3.5C 2.83333,3.5 3.5,2.83333 3.5,1.5C 4.16667,1.16667 4.83333,0.833333 5.5,0.5 Z"/></g>
<g><path style="opacity:0.812" fill="#3ecc50" d="M 3.5,1.5 C 3.5,2.83333 2.83333,3.5 1.5,3.5C 1.83333,2.5 2.5,1.83333 3.5,1.5 Z"/></g>
<g><path style="opacity:0.556" fill="#3cc950" d="M 3.5,5.5 C 4.83333,5.5 6.16667,5.5 7.5,5.5C 7.46141,6.75618 7.96141,7.75618 9,8.5C 11.3207,7.63865 12.4874,8.63865 12.5,11.5C 12.1667,11.5 11.8333,11.5 11.5,11.5C 11.6716,10.5084 11.3382,9.84171 10.5,9.5C 10.1667,9.5 9.83333,9.5 9.5,9.5C 8.29764,10.4054 6.9643,10.4054 5.5,9.5C 3.89578,8.71304 3.22911,7.3797 3.5,5.5 Z"/></g>
<g><path style="opacity:0.584" fill="#3bc850" d="M 12.5,3.5 C 13.1667,3.5 13.8333,3.5 14.5,3.5C 16.2366,7.69955 15.57,11.3662 12.5,14.5C 12.5,13.8333 12.1667,13.5 11.5,13.5C 11.5,13.1667 11.5,12.8333 11.5,12.5C 12.1667,12.5 12.5,12.1667 12.5,11.5C 13.7671,8.93868 13.7671,6.27202 12.5,3.5 Z"/></g>
<g><path style="opacity:0.843" fill="#3bc851" d="M 0.5,5.5 C 1.16667,5.83333 1.83333,6.16667 2.5,6.5C 2.84987,9.04082 2.84987,11.3742 2.5,13.5C 1.83333,13.5 1.5,13.1667 1.5,12.5C 0.631365,10.283 0.298032,7.94965 0.5,5.5 Z"/></g>
<g><path style="opacity:0.644" fill="#3cc851" d="M 5.5,9.5 C 6.9643,10.4054 8.29764,10.4054 9.5,9.5C 9.83333,10.8333 10.1667,10.8333 10.5,9.5C 11.3382,9.84171 11.6716,10.5084 11.5,11.5C 11.5,11.8333 11.5,12.1667 11.5,12.5C 8.91104,12.539 6.91104,11.539 5.5,9.5 Z"/></g>
<g><path style="opacity:0.611" fill="#3bc851" d="M 1.5,12.5 C 1.5,13.1667 1.83333,13.5 2.5,13.5C 4.16667,13.5 5.83333,13.5 7.5,13.5C 7.5,14.1667 7.5,14.8333 7.5,15.5C 5.16667,15.5 2.83333,15.5 0.5,15.5C 0.262695,14.209 0.596028,13.209 1.5,12.5 Z"/></g>
<g><path style="opacity:0.565" fill="#3bc751" d="M 7.5,13.5 C 8.83333,13.5 10.1667,13.5 11.5,13.5C 12.1667,13.5 12.5,13.8333 12.5,14.5C 10.9582,15.3007 9.29152,15.634 7.5,15.5C 7.5,14.8333 7.5,14.1667 7.5,13.5 Z"/></g>
</svg>
